<svg xmlns="http://www.w3.org/2000/svg" version="1.1" xmlns:xlink="http://www.w3.org/1999/xlink" xmlns:svgjs="http://svgjs.com/svgjs" width="60" height="60"><svg xmlns:inkscape="http://www.inkscape.org/namespaces/inkscape" xmlns:rdf="http://www.w3.org/1999/02/22-rdf-syntax-ns#" xmlns="http://www.w3.org/2000/svg" xmlns:dc="http://purl.org/dc/elements/1.1/" xmlns:ns1="http://sozi.baierouge.fr" xmlns:cc="http://web.resource.org/cc/" xmlns:xlink="http://www.w3.org/1999/xlink" xmlns:sodipodi="http://sodipodi.sourceforge.net/DTD/sodipodi-0.dtd" id="SvgjsSvg1019" sodipodi:docname="kedit.svg" viewBox="0 0 60 60" sodipodi:version="0.32" _svgfile__filename="oldscale/apps/kedit.svg" version="1.0" y="0" x="0" inkscape:version="0.40" sodipodi:docbase="/home/danny/work/flat/SVG/mono/scalable/apps">
  <sodipodi:namedview id="SvgjsSodipodi:namedview1018" bordercolor="#666666" inkscape:pageshadow="2" inkscape:window-y="0" pagecolor="#ffffff" inkscape:window-height="699" inkscape:zoom="2.7998784" inkscape:window-x="0" borderopacity="1.0" inkscape:current-layer="svg1" inkscape:cx="104.80047" inkscape:cy="-3.4549579" inkscape:window-width="1024" inkscape:pageopacity="0.0"></sodipodi:namedview>
  <path id="SvgjsPath1017" style="stroke-linejoin:round;stroke:#ffffff;stroke-width:8.125;fill:none" d="m5.3902 28.019c-0.5112 0.344-0.4332 1.102 0.1749 1.698l25.457 24.973c0.608 0.596 1.51 0.799 2.021 0.455l21.567-14.53c0.511-0.344 0.433-1.102-0.175-1.698l-25.457-24.973c-0.608-0.597-1.51-0.8-2.021-0.455l-21.567 14.53z"></path>
  <path id="SvgjsPath1016" style="stroke-linejoin:round;fill-rule:evenodd;stroke:#000000;stroke-width:3.3495;fill:#ffffff" transform="matrix(.93299 0 0 .93299 1.8434 1.9851)" d="m3.8015 27.903c-0.5479 0.37-0.4643 1.182 0.1875 1.821l27.286 26.766c0.652 0.64 1.617 0.857 2.165 0.488l23.116-15.573c0.548-0.369 0.465-1.181-0.187-1.821l-27.286-26.766c-0.652-0.64-1.617-0.857-2.165-0.488l-23.116 15.573z"></path>
  <path id="SvgjsPath1015" style="stroke-linejoin:round;stroke:#000000;stroke-linecap:round;stroke-width:1.6739;fill:none" transform="matrix(.93299 0 0 .93299 1.8434 1.9851)" d="m10.106 31.013l19.043-12.83"></path>
  <path id="SvgjsPath1014" style="stroke-linejoin:round;stroke:#000000;stroke-linecap:round;stroke-width:1.6739;fill:none" transform="matrix(.93299 0 0 .93299 1.8434 1.9851)" d="m14.275 35.102l19.043-12.83"></path>
  <path id="SvgjsPath1013" style="stroke-linejoin:round;stroke:#000000;stroke-linecap:round;stroke-width:1.6739;fill:none" transform="matrix(.93299 0 0 .93299 1.8434 1.9851)" d="m18.443 39.191l19.043-12.829"></path>
  <path id="SvgjsPath1012" style="stroke-linejoin:round;stroke:#000000;stroke-linecap:round;stroke-width:1.6739;fill:none" transform="matrix(.93299 0 0 .93299 1.8434 1.9851)" d="m22.612 43.281l19.043-12.83"></path>
  <path id="SvgjsPath1011" style="stroke-linejoin:round;stroke:#000000;stroke-linecap:round;stroke-width:1.6739;fill:none" transform="matrix(.93299 0 0 .93299 1.8434 1.9851)" d="m26.781 47.37l19.043-12.83"></path>
  <path id="SvgjsPath1010" style="stroke-linejoin:round;stroke:#000000;stroke-linecap:round;stroke-width:1.6739;fill:none" transform="matrix(.93299 0 0 .93299 1.8434 1.9851)" d="m30.921 51.479l10.557-7.113"></path>
  <g id="SvgjsG1009" style="stroke:#ffffff" transform="translate(-75)">
    <path id="SvgjsPath1008" style="stroke-linejoin:round;stroke:#ffffff;stroke-linecap:round;stroke-width:11.661;fill:none" d="m48.097 30.863l-12.896 9.383 7.946-13.817 4.95 4.434z" transform="matrix(.51058 -.29478 .29478 .51058 86.149 32.569)"></path>
    <rect id="SvgjsRect1007" style="stroke-linejoin:round;stroke:#ffffff;stroke-linecap:round;stroke-width:11.661;fill:none" transform="matrix(-.57641 -.12384 .12384 -.57641 86.149 32.569)" height="47.133" width="6.5463" y="9.3872" x="-56.329"></rect>
    <path id="SvgjsPath1006" style="stroke-linejoin:round;stroke:#ffffff;stroke-width:8.6126;fill:none" d="m61.966 18.726c0 0.343-0.278 0.621-0.62 0.621s-0.62-0.278-0.62-0.621c0-0.342 0.278-0.62 0.62-0.62s0.62 0.278 0.62 0.62z" transform="matrix(-.78044 -.16767 .16767 -.78044 161.3 64.863)"></path>
    <path id="SvgjsPath1005" style="stroke-linejoin:round;stroke:#ffffff;stroke-width:11.661;fill:none" d="m-54.664 56.374c-1.14 0-2.058 0.905-2.058 2.029s0.918 2.029 2.058 2.029h3.347c1.14 0 2.058-0.905 2.058-2.029s-0.918-2.029-2.058-2.029h-3.347z" transform="matrix(-.57641 -.12384 .12384 -.57641 86.149 32.569)"></path>
  </g>
  <g id="SvgjsG1004" transform="matrix(.64633 -.37316 .37316 .64633 11.584 22.113)">
    <path id="SvgjsPath1003" style="stroke-linejoin:round;fill-rule:evenodd;stroke:#000000;stroke-linecap:round;stroke-width:3.1803;fill:#000000" d="m48.097 30.863l-12.896 9.383 7.946-13.817 4.95 4.434z" transform="matrix(.78996 0 0 .78996 -7.5101 11.841)"></path>
    <rect id="SvgjsRect1002" style="stroke-linejoin:round;fill-rule:evenodd;stroke:#000000;stroke-linecap:round;stroke-width:3.1803;fill:#ffffff" transform="matrix(-.58589 -.52987 .52987 -.58589 -7.5101 11.841)" height="47.133" width="6.5463" y="9.3872" x="-56.329"></rect>
    <path id="SvgjsPath1001" style="stroke-linejoin:round;fill-rule:evenodd;stroke:#000000;stroke-width:2.3489;fill:#000000" d="m61.966 18.726c0 0.343-0.278 0.621-0.62 0.621s-0.62-0.278-0.62-0.621c0-0.342 0.278-0.62 0.62-0.62s0.62 0.278 0.62 0.62z" transform="matrix(-.79328 -.71743 .71743 -.79328 58.057 99.661)"></path>
    <path id="SvgjsPath1000" style="stroke-linejoin:round;fill-rule:evenodd;stroke:#000000;stroke-width:3.1803;fill:#ffffff" d="m-54.664 56.374c-1.14 0-2.058 0.905-2.058 2.029s0.918 2.029 2.058 2.029h3.347c1.14 0 2.058-0.905 2.058-2.029s-0.918-2.029-2.058-2.029h-3.347z" transform="matrix(-.58589 -.52987 .52987 -.58589 -7.5101 11.841)"></path>
  </g>
  <metadata>
    <rdf:rdf>
      <cc:work>
        <dc:format>image/svg+xml</dc:format>
        <dc:type rdf:resource="http://purl.org/dc/dcmitype/StillImage"></dc:type>
        <cc:license rdf:resource="http://creativecommons.org/licenses/publicdomain/"></cc:license>
        <dc:publisher>
          <cc:agent rdf:about="http://openclipart.org/">
            <dc:title>Openclipart</dc:title>
          </cc:agent>
        </dc:publisher>
      </cc:work>
      <cc:license rdf:about="http://creativecommons.org/licenses/publicdomain/">
        <cc:permits rdf:resource="http://creativecommons.org/ns#Reproduction"></cc:permits>
        <cc:permits rdf:resource="http://creativecommons.org/ns#Distribution"></cc:permits>
        <cc:permits rdf:resource="http://creativecommons.org/ns#DerivativeWorks"></cc:permits>
      </cc:license>
    </rdf:rdf>
  </metadata>
</svg><style>@media (prefers-color-scheme: light) { :root { filter: none; } }
</style></svg>